<?xml version="1.0" encoding="us-ascii" standalone="no"?><svg xmlns="http://www.w3.org/2000/svg" xmlns:xlink="http://www.w3.org/1999/xlink" contentStyleType="text/css" height="534px" preserveAspectRatio="none" style="width:659px;height:534px;background:#FFFFFF;" version="1.1" viewBox="0 0 659 534" width="659px" zoomAndPan="magnify"><defs/><g><rect fill="#FFFFFF" height="418.5703" style="stroke:#181818;stroke-width:1.0;" width="10" x="219.5" y="69.9609"/><rect fill="#FFFFFF" height="41.5273" style="stroke:#181818;stroke-width:1.0;" width="10" x="365" y="169.0156"/><rect fill="#FFFFFF" height="49.7031" style="stroke:#181818;stroke-width:1.0;" width="10" x="495.5" y="284.4219"/><rect fill="#FFFFFF" height="14" style="stroke:#181818;stroke-width:1.0;" width="10" x="495.5" y="451.5313"/><rect fill="#FFFFFF" height="30.3516" style="stroke:#181818;stroke-width:1.0;" width="10" x="606.5" y="390.8281"/><rect fill="none" height="101.4063" style="stroke:#000000;stroke-width:1.5;" width="432" x="9" y="128.3125"/><rect fill="none" height="117.7578" style="stroke:#000000;stroke-width:1.5;" width="548" x="22" y="243.7188"/><line style="stroke:#181818;stroke-width:0.5;stroke-dasharray:5.0,5.0;" x1="224" x2="224" y1="37.6094" y2="497.5313"/><line style="stroke:#181818;stroke-width:0.5;stroke-dasharray:5.0,5.0;" x1="370" x2="370" y1="37.6094" y2="497.5313"/><line style="stroke:#181818;stroke-width:0.5;stroke-dasharray:5.0,5.0;" x1="500" x2="500" y1="37.6094" y2="497.5313"/><line style="stroke:#181818;stroke-width:0.5;stroke-dasharray:5.0,5.0;" x1="611" x2="611" y1="37.6094" y2="497.5313"/><rect fill="#E2E2F0" height="31.6094" rx="2.5" ry="2.5" style="stroke:#181818;stroke-width:0.5;" width="149" x="150" y="5"/><text fill="#000000" font-family="sans-serif" font-size="14" lengthAdjust="spacing" textLength="135" x="157" y="26.5332">ModeleLabyrinth:laby</text><rect fill="#E2E2F0" height="31.6094" rx="2.5" ry="2.5" style="stroke:#181818;stroke-width:0.5;" width="149" x="150" y="496.5313"/><text fill="#000000" font-family="sans-serif" font-size="14" lengthAdjust="spacing" textLength="135" x="157" y="518.0645">ModeleLabyrinth:laby</text><rect fill="#E2E2F0" height="31.6094" rx="2.5" ry="2.5" style="stroke:#181818;stroke-width:0.5;" width="122" x="309" y="5"/><text fill="#000000" font-family="sans-serif" font-size="14" lengthAdjust="spacing" textLength="108" x="316" y="26.5332">Defense:defense</text><rect fill="#E2E2F0" height="31.6094" rx="2.5" ry="2.5" style="stroke:#181818;stroke-width:0.5;" width="122" x="309" y="496.5313"/><text fill="#000000" font-family="sans-serif" font-size="14" lengthAdjust="spacing" textLength="108" x="316" y="518.0645">Defense:defense</text><rect fill="#E2E2F0" height="31.6094" rx="2.5" ry="2.5" style="stroke:#181818;stroke-width:0.5;" width="119" x="441" y="5"/><text fill="#000000" font-family="sans-serif" font-size="14" lengthAdjust="spacing" textLength="105" x="448" y="26.5332">Ennemy:ennemy</text><rect fill="#E2E2F0" height="31.6094" rx="2.5" ry="2.5" style="stroke:#181818;stroke-width:0.5;" width="119" x="441" y="496.5313"/><text fill="#000000" font-family="sans-serif" font-size="14" lengthAdjust="spacing" textLength="105" x="448" y="518.0645">Ennemy:ennemy</text><rect fill="#E2E2F0" height="31.6094" rx="2.5" ry="2.5" style="stroke:#181818;stroke-width:0.5;" width="83" x="570" y="5"/><text fill="#000000" font-family="sans-serif" font-size="14" lengthAdjust="spacing" textLength="69" x="577" y="26.5332">Astar:astar</text><rect fill="#E2E2F0" height="31.6094" rx="2.5" ry="2.5" style="stroke:#181818;stroke-width:0.5;" width="83" x="570" y="496.5313"/><text fill="#000000" font-family="sans-serif" font-size="14" lengthAdjust="spacing" textLength="69" x="577" y="518.0645">Astar:astar</text><rect fill="#FFFFFF" height="418.5703" style="stroke:#181818;stroke-width:1.0;" width="10" x="219.5" y="69.9609"/><rect fill="#FFFFFF" height="41.5273" style="stroke:#181818;stroke-width:1.0;" width="10" x="365" y="169.0156"/><rect fill="#FFFFFF" height="49.7031" style="stroke:#181818;stroke-width:1.0;" width="10" x="495.5" y="284.4219"/><rect fill="#FFFFFF" height="14" style="stroke:#181818;stroke-width:1.0;" width="10" x="495.5" y="451.5313"/><rect fill="#FFFFFF" height="30.3516" style="stroke:#181818;stroke-width:1.0;" width="10" x="606.5" y="390.8281"/><polygon fill="#181818" points="207.5,65.9609,217.5,69.9609,207.5,73.9609,211.5,69.9609" style="stroke:#181818;stroke-width:1.0;"/><line style="stroke:#181818;stroke-width:1.0;" x1="0" x2="213.5" y1="69.9609" y2="69.9609"/><text fill="#000000" font-family="sans-serif" font-size="13" lengthAdjust="spacing" textLength="47" x="86.25" y="65.1045">update()</text><line style="stroke:#181818;stroke-width:1.0;" x1="229.5" x2="271.5" y1="100.3125" y2="100.3125"/><line style="stroke:#181818;stroke-width:1.0;" x1="271.5" x2="271.5" y1="100.3125" y2="113.3125"/><line style="stroke:#181818;stroke-width:1.0;" x1="230.5" x2="271.5" y1="113.3125" y2="113.3125"/><polygon fill="#181818" points="240.5,109.3125,230.5,113.3125,240.5,117.3125,236.5,113.3125" style="stroke:#181818;stroke-width:1.0;"/><text fill="#000000" font-family="sans-serif" font-size="13" lengthAdjust="spacing" textLength="108" x="236.5" y="95.4561">towerIsDestroyed()</text><path d="M9,128.3125 L82,128.3125 L82,136.6641 L72,146.6641 L9,146.6641 L9,128.3125 " fill="#EEEEEE" style="stroke:#000000;stroke-width:1.5;"/><rect fill="none" height="101.4063" style="stroke:#000000;stroke-width:1.5;" width="432" x="9" y="128.3125"/><text fill="#000000" font-family="sans-serif" font-size="13" font-weight="bold" lengthAdjust="spacing" textLength="28" x="24" y="142.8076">loop</text><text fill="#000000" font-family="sans-serif" font-size="11" font-weight="bold" lengthAdjust="spacing" textLength="143" x="97" y="141.7314">[defense in deadDefense]</text><polygon fill="#181818" points="353,165.0156,363,169.0156,353,173.0156,357,169.0156" style="stroke:#181818;stroke-width:1.0;"/><line style="stroke:#181818;stroke-width:1.0;" x1="229.5" x2="359" y1="169.0156" y2="169.0156"/><text fill="#000000" font-family="sans-serif" font-size="13" lengthAdjust="spacing" textLength="73" x="260.75" y="164.1592">getPosition()</text><polygon fill="#181818" points="240.5,206.543,230.5,210.543,240.5,214.543,236.5,210.543" style="stroke:#181818;stroke-width:1.0;"/><line style="stroke:#181818;stroke-width:1.0;stroke-dasharray:2.0,2.0;" x1="234.5" x2="369" y1="210.543" y2="210.543"/><text fill="#000000" font-family="sans-serif" font-size="13" lengthAdjust="spacing" textLength="111" x="244.25" y="205.6865">Vector2D : position</text><path d="M19,182.0156 L19,224.0156 L214,224.0156 L214,192.0156 L204,182.0156 L19,182.0156 " fill="#FEFFDD" style="stroke:#181818;stroke-width:0.5;"/><path d="M204,182.0156 L204,192.0156 L214,192.0156 L204,182.0156 " fill="#FEFFDD" style="stroke:#181818;stroke-width:0.5;"/><text fill="#000000" font-family="sans-serif" font-size="13" lengthAdjust="spacing" textLength="157" x="25" y="200.5107">"On tranforme dans la grille</text><text fill="#000000" font-family="sans-serif" font-size="13" lengthAdjust="spacing" textLength="174" x="25" y="216.8623">la defense par un chemin ('.') "</text><path d="M22,243.7188 L95,243.7188 L95,252.0703 L85,262.0703 L22,262.0703 L22,243.7188 " fill="#EEEEEE" style="stroke:#000000;stroke-width:1.5;"/><rect fill="none" height="117.7578" style="stroke:#000000;stroke-width:1.5;" width="548" x="22" y="243.7188"/><text fill="#000000" font-family="sans-serif" font-size="13" font-weight="bold" lengthAdjust="spacing" textLength="28" x="37" y="258.2139">loop</text><text fill="#000000" font-family="sans-serif" font-size="11" font-weight="bold" lengthAdjust="spacing" textLength="118" x="110" y="257.1377">[ennemy in enemies]</text><polygon fill="#181818" points="483.5,280.4219,493.5,284.4219,483.5,288.4219,487.5,284.4219" style="stroke:#181818;stroke-width:1.0;"/><line style="stroke:#181818;stroke-width:1.0;" x1="229.5" x2="489.5" y1="284.4219" y2="284.4219"/><text fill="#000000" font-family="sans-serif" font-size="13" lengthAdjust="spacing" textLength="99" x="313" y="279.5654">getPositionReel()</text><polygon fill="#181818" points="240.5,330.125,230.5,334.125,240.5,338.125,236.5,334.125" style="stroke:#181818;stroke-width:1.0;"/><line style="stroke:#181818;stroke-width:1.0;stroke-dasharray:2.0,2.0;" x1="234.5" x2="499.5" y1="334.125" y2="334.125"/><text fill="#000000" font-family="sans-serif" font-size="13" lengthAdjust="spacing" textLength="111" x="309.5" y="329.2686">Vector2D : position</text><path d="M32,297.4219 L32,356.4219 L214,356.4219 L214,307.4219 L204,297.4219 L32,297.4219 " fill="#FEFFDD" style="stroke:#181818;stroke-width:0.5;"/><path d="M204,297.4219 L204,307.4219 L214,307.4219 L204,297.4219 " fill="#FEFFDD" style="stroke:#181818;stroke-width:0.5;"/><text fill="#000000" font-family="sans-serif" font-size="13" lengthAdjust="spacing" textLength="157" x="38" y="315.917">"On tranforme dans la grille</text><text fill="#000000" font-family="sans-serif" font-size="13" lengthAdjust="spacing" textLength="128" x="38" y="332.2686">la position de l'ennemi</text><text fill="#000000" font-family="sans-serif" font-size="13" lengthAdjust="spacing" textLength="161" x="38" y="348.6201">par un nouveau depart ('S') "</text><polygon fill="#181818" points="594.5,386.8281,604.5,390.8281,594.5,394.8281,598.5,390.8281" style="stroke:#181818;stroke-width:1.0;"/><line style="stroke:#181818;stroke-width:1.0;" x1="229.5" x2="600.5" y1="390.8281" y2="390.8281"/><text fill="#000000" font-family="sans-serif" font-size="13" lengthAdjust="spacing" textLength="80" x="378" y="385.9717">aStarSearch()</text><polygon fill="#181818" points="240.5,417.1797,230.5,421.1797,240.5,425.1797,236.5,421.1797" style="stroke:#181818;stroke-width:1.0;"/><line style="stroke:#181818;stroke-width:1.0;stroke-dasharray:2.0,2.0;" x1="234.5" x2="610.5" y1="421.1797" y2="421.1797"/><text fill="#000000" font-family="sans-serif" font-size="13" lengthAdjust="spacing" textLength="176" x="332.5" y="416.3232">ArrayList&lt;Vector2D&gt; : chemin</text><polygon fill="#181818" points="483.5,447.5313,493.5,451.5313,483.5,455.5313,487.5,451.5313" style="stroke:#181818;stroke-width:1.0;"/><line style="stroke:#181818;stroke-width:1.0;" x1="229.5" x2="489.5" y1="451.5313" y2="451.5313"/><text fill="#000000" font-family="sans-serif" font-size="13" lengthAdjust="spacing" textLength="109" x="308" y="446.6748">setBehaviourPath()</text><polygon fill="#181818" points="240.5,461.5313,230.5,465.5313,240.5,469.5313,236.5,465.5313" style="stroke:#181818;stroke-width:1.0;"/><line style="stroke:#181818;stroke-width:1.0;stroke-dasharray:2.0,2.0;" x1="234.5" x2="499.5" y1="465.5313" y2="465.5313"/><polygon fill="#181818" points="11,475.5313,1,479.5313,11,483.5313,7,479.5313" style="stroke:#181818;stroke-width:1.0;"/><line style="stroke:#181818;stroke-width:1.0;stroke-dasharray:2.0,2.0;" x1="5" x2="218.5" y1="479.5313" y2="479.5313"/><!--SRC=[dLAnZjim3Dtr5KIM94CwT3GE1wJ83GNkq4C3T6UjbqIeGxcId29_NrfI4hkTMWyIHJsIxpqh_d3IS-0pHVmS82tU42CViUtSKQY590IZYEHQrxCaMhnvYmwl_FqQdAHJqscq88uq1dFe3WT8H6FBdb5s3daHmVdQ86yPW3bW6nE7XiSrN-V861g_pNCUIWqDlUM4rRhakKtkekT2AKCUqEH_8NoEEyGK_1LMYqpdVK-L9JdHa6qbdplUMbYjFoAz- -YIyrBdtSTPocTBcyUuRsYJ3nzt6lQrh83mACi9yIDX759filWYb0BBmOUpGbX6W-aONDU1AgaxPNMC1lrT9voL_MhvORccHGP1REviDAWwYzUZJ6ZW4CrC8-OQlmBTdpgBAVX7cQNgltJUMcexwfPPWCjtLRZuuG8Uz7fyEsh0_cy3gWDLPNv6IfRtkk_1eJsjrcJkPCipAwY9p6q8V7rrCJtT13zhjlXk9bfB-TJIYFG99xuuFuHtJZhDJ9nvU3djCXhmjDcKl36_0G00]--></g></svg>