<?xml version="1.0" encoding="us-ascii" standalone="no"?><svg xmlns="http://www.w3.org/2000/svg" xmlns:xlink="http://www.w3.org/1999/xlink" contentStyleType="text/css" height="1089px" preserveAspectRatio="none" style="width:1361px;height:1089px;background:#FFFFFF;" version="1.1" viewBox="0 0 1361 1089" width="1361px" zoomAndPan="magnify"><defs/><g><!--class Astar--><g id="elem_Astar"><rect codeLine="6" fill="#FFFFFF" height="214.1465" id="Astar" rx="2.5" ry="2.5" style="stroke:#000000;stroke-width:1.0;" width="665" x="14" y="184"/><ellipse cx="323.75" cy="198" fill="#FFFFFF" rx="9" ry="9" style="stroke:#000000;stroke-width:1.0;"/><path d="M326.5156,199.5313 L328.9063,200.2813 Q328.3594,202.2656 327.0781,203.2344 Q325.8125,204.2031 323.8438,204.2031 Q321.4219,204.2031 319.8594,202.5469 Q318.3125,200.8906 318.3125,198.0156 Q318.3125,194.9844 319.875,193.3125 Q321.4375,191.625 324,191.625 Q326.2344,191.625 327.625,192.9375 Q328.4531,193.7188 328.875,195.1875 L326.4375,195.7656 Q326.2188,194.8125 325.5313,194.2656 Q324.8594,193.7188 323.875,193.7188 Q322.5156,193.7188 321.6719,194.7031 Q320.8438,195.6719 320.8438,197.8438 Q320.8438,200.1406 321.6719,201.125 Q322.5,202.1094 323.8281,202.1094 Q324.8125,202.1094 325.5156,201.4844 Q326.2188,200.8594 326.5156,199.5313 Z " fill="#000000"/><text fill="#000000" font-family="Verdana" font-size="14" lengthAdjust="spacing" textLength="38" x="341.25" y="203.5679">Astar</text><line style="stroke:#000000;stroke-width:1.0;" x1="15" x2="678" y1="212" y2="212"/><line style="stroke:#000000;stroke-width:1.0;" x1="15" x2="678" y1="220" y2="220"/><ellipse cx="25" cy="234.0073" fill="#FFFFFF" rx="3" ry="3" style="stroke:#000000;stroke-width:1.0;"/><text fill="#000000" font-family="Verdana" font-size="14" lengthAdjust="spacing" textLength="311" x="32" y="238.0752">isDestination(Vector2D, Vector2D): boolean</text><rect fill="#FFFFFF" height="6" style="stroke:#000000;stroke-width:1.0;" width="6" x="22" y="248.022"/><text fill="#000000" font-family="Verdana" font-size="14" lengthAdjust="spacing" textLength="311" x="32" y="255.0898">countNearbyTowers(char[][], Vector2D): int</text><rect fill="#FFFFFF" height="6" style="stroke:#000000;stroke-width:1.0;" width="6" x="22" y="265.0366"/><text fill="#000000" font-family="Verdana" font-size="14" lengthAdjust="spacing" textLength="333" x="32" y="272.1045">getTowerPenalty(double[][], Vector2D): double</text><rect fill="#FFFFFF" height="6" style="stroke:#000000;stroke-width:1.0;" width="6" x="22" y="282.0513"/><text fill="#000000" font-family="Verdana" font-size="14" lengthAdjust="spacing" textLength="317" x="32" y="289.1191">getNearTower(char[][], Vector2D): Vector2D</text><rect fill="#FFFFFF" height="6" style="stroke:#000000;stroke-width:1.0;" width="6" x="22" y="299.0659"/><text fill="#000000" font-family="Verdana" font-size="14" lengthAdjust="spacing" textLength="420" x="32" y="306.1338">createTowerAvoidanceCostGrid(char[][], String): double[][]</text><rect fill="#FFFFFF" height="6" style="stroke:#000000;stroke-width:1.0;" width="6" x="22" y="316.0806"/><text fill="#000000" font-family="Verdana" font-size="14" lengthAdjust="spacing" textLength="364" x="32" y="323.1484">tracePath(Cell[][], Vector2D): ArrayList&lt;Vector2D&gt;</text><polygon fill="#FFFFFF" points="25,332.0952,21,338.0952,29,338.0952" style="stroke:#000000;stroke-width:1.0;"/><text fill="#000000" font-family="Verdana" font-size="14" lengthAdjust="spacing" textLength="291" x="32" y="340.1631">isUnblocked(char[][], Vector2D): boolean</text><ellipse cx="25" cy="353.1099" fill="#FFFFFF" rx="3" ry="3" style="stroke:#000000;stroke-width:1.0;"/><text fill="#000000" font-family="Verdana" font-size="14" lengthAdjust="spacing" textLength="641" x="32" y="357.1777">aStarSearch(char[][], int, int, Vector2D, Vector2D, String, Boolean): ArrayList&lt;Vector2D&gt;</text><polygon fill="#FFFFFF" points="25,366.1245,21,372.1245,29,372.1245" style="stroke:#000000;stroke-width:1.0;"/><text fill="#000000" font-family="Verdana" font-size="14" lengthAdjust="spacing" textLength="319" x="32" y="374.1924">calculateHValue(Vector2D, Vector2D): double</text><polygon fill="#FFFFFF" points="25,383.1392,21,389.1392,29,389.1392" style="stroke:#000000;stroke-width:1.0;"/><text fill="#000000" font-family="Verdana" font-size="14" lengthAdjust="spacing" textLength="252" x="32" y="391.207">isValid(char[][], Vector2D): boolean</text></g><!--class AvoidBehavior--><g id="elem_AvoidBehavior"><rect codeLine="18" fill="#FFFFFF" height="95.0439" id="AvoidBehavior" rx="2.5" ry="2.5" style="stroke:#000000;stroke-width:1.0;" width="266" x="714.5" y="243.5"/><ellipse cx="793.75" cy="257.5" fill="#FFFFFF" rx="9" ry="9" style="stroke:#000000;stroke-width:1.0;"/><path d="M796.5156,259.0313 L798.9063,259.7813 Q798.3594,261.7656 797.0781,262.7344 Q795.8125,263.7031 793.8438,263.7031 Q791.4219,263.7031 789.8594,262.0469 Q788.3125,260.3906 788.3125,257.5156 Q788.3125,254.4844 789.875,252.8125 Q791.4375,251.125 794,251.125 Q796.2344,251.125 797.625,252.4375 Q798.4531,253.2188 798.875,254.6875 L796.4375,255.2656 Q796.2188,254.3125 795.5313,253.7656 Q794.8594,253.2188 793.875,253.2188 Q792.5156,253.2188 791.6719,254.2031 Q790.8438,255.1719 790.8438,257.3438 Q790.8438,259.6406 791.6719,260.625 Q792.5,261.6094 793.8281,261.6094 Q794.8125,261.6094 795.5156,260.9844 Q796.2188,260.3594 796.5156,259.0313 Z " fill="#000000"/><text fill="#000000" font-family="Verdana" font-size="14" lengthAdjust="spacing" textLength="100" x="811.25" y="263.0679">AvoidBehavior</text><line style="stroke:#000000;stroke-width:1.0;" x1="715.5" x2="979.5" y1="271.5" y2="271.5"/><rect fill="none" height="6" style="stroke:#000000;stroke-width:1.0;" width="6" x="722.5" y="282.5073"/><text fill="#000000" font-family="Verdana" font-size="14" lengthAdjust="spacing" textLength="185" x="732.5" y="289.5752">MAX_SEE_AHEAD: double</text><line style="stroke:#000000;stroke-width:1.0;" x1="715.5" x2="979.5" y1="296.5146" y2="296.5146"/><ellipse cx="725.5" cy="310.522" fill="#FFFFFF" rx="3" ry="3" style="stroke:#000000;stroke-width:1.0;"/><text fill="#000000" font-family="Verdana" font-size="14" lengthAdjust="spacing" textLength="220" x="732.5" y="314.5898">getMAX_SEE_AHEAD(): double</text><ellipse cx="725.5" cy="327.5366" fill="#FFFFFF" rx="3" ry="3" style="stroke:#000000;stroke-width:1.0;"/><text fill="#000000" font-family="Verdana" font-size="14" lengthAdjust="spacing" textLength="242" x="732.5" y="331.6045">calculateForce(Ennemy): Vector2D</text></g><!--class Behavior--><g id="elem_Behavior"><rect codeLine="23" fill="#FFFFFF" height="163.1025" id="Behavior" rx="2.5" ry="2.5" style="stroke:#000000;stroke-width:1.0;" width="266" x="807.5" y="458"/><ellipse cx="906.25" cy="472" fill="#FFFFFF" rx="9" ry="9" style="stroke:#000000;stroke-width:1.0;"/><path d="M909.0156,473.5313 L911.4063,474.2813 Q910.8594,476.2656 909.5781,477.2344 Q908.3125,478.2031 906.3438,478.2031 Q903.9219,478.2031 902.3594,476.5469 Q900.8125,474.8906 900.8125,472.0156 Q900.8125,468.9844 902.375,467.3125 Q903.9375,465.625 906.5,465.625 Q908.7344,465.625 910.125,466.9375 Q910.9531,467.7188 911.375,469.1875 L908.9375,469.7656 Q908.7188,468.8125 908.0313,468.2656 Q907.3594,467.7188 906.375,467.7188 Q905.0156,467.7188 904.1719,468.7031 Q903.3438,469.6719 903.3438,471.8438 Q903.3438,474.1406 904.1719,475.125 Q905,476.1094 906.3281,476.1094 Q907.3125,476.1094 908.0156,475.4844 Q908.7188,474.8594 909.0156,473.5313 Z " fill="#000000"/><text fill="#000000" font-family="Verdana" font-size="14" lengthAdjust="spacing" textLength="61" x="923.75" y="477.5679">Behavior</text><line style="stroke:#000000;stroke-width:1.0;" x1="808.5" x2="1072.5" y1="486" y2="486"/><polygon fill="none" points="818.5,495.0073,822.5,499.0073,818.5,503.0073,814.5,499.0073" style="stroke:#000000;stroke-width:1.0;"/><text fill="#000000" font-family="Verdana" font-size="14" lengthAdjust="spacing" textLength="238" x="825.5" y="504.0752">ACCELERATION_DIVISER: double</text><rect fill="none" height="6" style="stroke:#000000;stroke-width:1.0;" width="6" x="815.5" y="514.022"/><text fill="#000000" font-family="Verdana" font-size="14" lengthAdjust="spacing" textLength="120" x="825.5" y="521.0898">target: Vector2D</text><rect fill="none" height="6" style="stroke:#000000;stroke-width:1.0;" width="6" x="815.5" y="531.0366"/><text fill="#000000" font-family="Verdana" font-size="14" lengthAdjust="spacing" textLength="181" x="825.5" y="538.1045">TARGET_RADIUS: double</text><line style="stroke:#000000;stroke-width:1.0;" x1="808.5" x2="1072.5" y1="545.0439" y2="545.0439"/><ellipse cx="818.5" cy="559.0513" fill="#FFFFFF" rx="3" ry="3" style="stroke:#000000;stroke-width:1.0;"/><text fill="#000000" font-family="Verdana" font-size="14" lengthAdjust="spacing" textLength="186" x="825.5" y="563.1191">getTargetRadius(): double</text><ellipse cx="818.5" cy="576.0659" fill="#FFFFFF" rx="3" ry="3" style="stroke:#000000;stroke-width:1.0;"/><text fill="#000000" font-family="Verdana" font-size="14" lengthAdjust="spacing" textLength="158" x="825.5" y="580.1338">getTarget(): Vector2D</text><ellipse cx="818.5" cy="593.0806" fill="#FFFFFF" rx="3" ry="3" style="stroke:#000000;stroke-width:1.0;"/><text fill="#000000" font-family="Verdana" font-size="14" lengthAdjust="spacing" textLength="186" x="825.5" y="597.1484">setTarget(Vector2D): void</text><ellipse cx="818.5" cy="610.0952" fill="#FFFFFF" rx="3" ry="3" style="stroke:#000000;stroke-width:1.0;"/><text fill="#000000" font-family="Verdana" font-size="14" lengthAdjust="spacing" textLength="242" x="825.5" y="614.1631">calculateForce(Ennemy): Vector2D</text></g><!--class Cell--><g id="elem_Cell"><rect codeLine="32" fill="#FFFFFF" height="112.0586" id="Cell" rx="2.5" ry="2.5" style="stroke:#000000;stroke-width:1.0;" width="147" x="273" y="483.5"/><ellipse cx="330.75" cy="497.5" fill="#FFFFFF" rx="9" ry="9" style="stroke:#000000;stroke-width:1.0;"/><path d="M333.5156,499.0313 L335.9063,499.7813 Q335.3594,501.7656 334.0781,502.7344 Q332.8125,503.7031 330.8438,503.7031 Q328.4219,503.7031 326.8594,502.0469 Q325.3125,500.3906 325.3125,497.5156 Q325.3125,494.4844 326.875,492.8125 Q328.4375,491.125 331,491.125 Q333.2344,491.125 334.625,492.4375 Q335.4531,493.2188 335.875,494.6875 L333.4375,495.2656 Q333.2188,494.3125 332.5313,493.7656 Q331.8594,493.2188 330.875,493.2188 Q329.5156,493.2188 328.6719,494.2031 Q327.8438,495.1719 327.8438,497.3438 Q327.8438,499.6406 328.6719,500.625 Q329.5,501.6094 330.8281,501.6094 Q331.8125,501.6094 332.5156,500.9844 Q333.2188,500.3594 333.5156,499.0313 Z " fill="#000000"/><text fill="#000000" font-family="Verdana" font-size="14" lengthAdjust="spacing" textLength="24" x="348.25" y="503.0679">Cell</text><line style="stroke:#000000;stroke-width:1.0;" x1="274" x2="419" y1="511.5" y2="511.5"/><ellipse cx="284" cy="525.5073" fill="none" rx="3" ry="3" style="stroke:#000000;stroke-width:1.0;"/><text fill="#000000" font-family="Verdana" font-size="14" lengthAdjust="spacing" textLength="67" x="291" y="529.5752">h: double</text><ellipse cx="284" cy="542.522" fill="none" rx="3" ry="3" style="stroke:#000000;stroke-width:1.0;"/><text fill="#000000" font-family="Verdana" font-size="14" lengthAdjust="spacing" textLength="123" x="291" y="546.5898">parent: Vector2D</text><ellipse cx="284" cy="559.5366" fill="none" rx="3" ry="3" style="stroke:#000000;stroke-width:1.0;"/><text fill="#000000" font-family="Verdana" font-size="14" lengthAdjust="spacing" textLength="67" x="291" y="563.6045">g: double</text><ellipse cx="284" cy="576.5513" fill="none" rx="3" ry="3" style="stroke:#000000;stroke-width:1.0;"/><text fill="#000000" font-family="Verdana" font-size="14" lengthAdjust="spacing" textLength="63" x="291" y="580.6191">f: double</text><line style="stroke:#000000;stroke-width:1.0;" x1="274" x2="419" y1="587.5586" y2="587.5586"/></g><!--class Details--><g id="elem_Details"><rect codeLine="38" fill="#FFFFFF" height="95.0439" id="Details" rx="2.5" ry="2.5" style="stroke:#000000;stroke-width:1.0;" width="118" x="455.5" y="492"/><ellipse cx="487.85" cy="506" fill="#FFFFFF" rx="9" ry="9" style="stroke:#000000;stroke-width:1.0;"/><path d="M490.6156,507.5313 L493.0063,508.2813 Q492.4594,510.2656 491.1781,511.2344 Q489.9125,512.2031 487.9438,512.2031 Q485.5219,512.2031 483.9594,510.5469 Q482.4125,508.8906 482.4125,506.0156 Q482.4125,502.9844 483.975,501.3125 Q485.5375,499.625 488.1,499.625 Q490.3344,499.625 491.725,500.9375 Q492.5531,501.7188 492.975,503.1875 L490.5375,503.7656 Q490.3188,502.8125 489.6313,502.2656 Q488.9594,501.7188 487.975,501.7188 Q486.6156,501.7188 485.7719,502.7031 Q484.9438,503.6719 484.9438,505.8438 Q484.9438,508.1406 485.7719,509.125 Q486.6,510.1094 487.9281,510.1094 Q488.9125,510.1094 489.6156,509.4844 Q490.3188,508.8594 490.6156,507.5313 Z " fill="#000000"/><text fill="#000000" font-family="Verdana" font-size="14" lengthAdjust="spacing" textLength="47" x="504.15" y="511.5679">Details</text><line style="stroke:#000000;stroke-width:1.0;" x1="456.5" x2="572.5" y1="520" y2="520"/><polygon fill="none" points="466.5,530.0073,462.5,536.0073,470.5,536.0073" style="stroke:#000000;stroke-width:1.0;"/><text fill="#000000" font-family="Verdana" font-size="14" lengthAdjust="spacing" textLength="94" x="473.5" y="538.0752">value: double</text><polygon fill="none" points="466.5,547.022,462.5,553.022,470.5,553.022" style="stroke:#000000;stroke-width:1.0;"/><text fill="#000000" font-family="Verdana" font-size="14" lengthAdjust="spacing" textLength="63" x="473.5" y="555.0898">j: double</text><polygon fill="none" points="466.5,564.0366,462.5,570.0366,470.5,570.0366" style="stroke:#000000;stroke-width:1.0;"/><text fill="#000000" font-family="Verdana" font-size="14" lengthAdjust="spacing" textLength="61" x="473.5" y="572.1045">i: double</text><line style="stroke:#000000;stroke-width:1.0;" x1="456.5" x2="572.5" y1="579.0439" y2="579.0439"/></g><!--class PathfollowingBehavior--><g id="elem_PathfollowingBehavior"><rect codeLine="43" fill="#FFFFFF" height="112.0586" id="PathfollowingBehavior" rx="2.5" ry="2.5" style="stroke:#000000;stroke-width:1.0;" width="269" x="1085" y="12"/><ellipse cx="1139.25" cy="26" fill="#FFFFFF" rx="9" ry="9" style="stroke:#000000;stroke-width:1.0;"/><path d="M1142.0156,27.5313 L1144.4063,28.2813 Q1143.8594,30.2656 1142.5781,31.2344 Q1141.3125,32.2031 1139.3438,32.2031 Q1136.9219,32.2031 1135.3594,30.5469 Q1133.8125,28.8906 1133.8125,26.0156 Q1133.8125,22.9844 1135.375,21.3125 Q1136.9375,19.625 1139.5,19.625 Q1141.7344,19.625 1143.125,20.9375 Q1143.9531,21.7188 1144.375,23.1875 L1141.9375,23.7656 Q1141.7188,22.8125 1141.0313,22.2656 Q1140.3594,21.7188 1139.375,21.7188 Q1138.0156,21.7188 1137.1719,22.7031 Q1136.3438,23.6719 1136.3438,25.8438 Q1136.3438,28.1406 1137.1719,29.125 Q1138,30.1094 1139.3281,30.1094 Q1140.3125,30.1094 1141.0156,29.4844 Q1141.7188,28.8594 1142.0156,27.5313 Z " fill="#000000"/><text fill="#000000" font-family="Verdana" font-size="14" lengthAdjust="spacing" textLength="153" x="1156.75" y="31.5679">PathfollowingBehavior</text><line style="stroke:#000000;stroke-width:1.0;" x1="1086" x2="1353" y1="40" y2="40"/><rect fill="none" height="6" style="stroke:#000000;stroke-width:1.0;" width="6" x="1093" y="51.0073"/><text fill="#000000" font-family="Verdana" font-size="14" lengthAdjust="spacing" textLength="206" x="1103" y="58.0752">currentCheckpoint: Vector2D</text><rect fill="none" height="6" style="stroke:#000000;stroke-width:1.0;" width="6" x="1093" y="68.022"/><text fill="#000000" font-family="Verdana" font-size="14" lengthAdjust="spacing" textLength="198" x="1103" y="75.0898">currentCheckpointIndex: int</text><rect fill="none" height="6" style="stroke:#000000;stroke-width:1.0;" width="6" x="1093" y="85.0366"/><text fill="#000000" font-family="Verdana" font-size="14" lengthAdjust="spacing" textLength="245" x="1103" y="92.1045">checkpoints: ArrayList&lt;Vector2D&gt;</text><line style="stroke:#000000;stroke-width:1.0;" x1="1086" x2="1353" y1="99.0439" y2="99.0439"/><ellipse cx="1096" cy="113.0513" fill="#FFFFFF" rx="3" ry="3" style="stroke:#000000;stroke-width:1.0;"/><text fill="#000000" font-family="Verdana" font-size="14" lengthAdjust="spacing" textLength="242" x="1103" y="117.1191">calculateForce(Ennemy): Vector2D</text></g><!--class SeekBehavior--><g id="elem_SeekBehavior"><rect codeLine="49" fill="#FFFFFF" height="61.0146" id="SeekBehavior" rx="2.5" ry="2.5" style="stroke:#000000;stroke-width:1.0;" width="266" x="1086.5" y="260.5"/><ellipse cx="1168.25" cy="274.5" fill="#FFFFFF" rx="9" ry="9" style="stroke:#000000;stroke-width:1.0;"/><path d="M1171.0156,276.0313 L1173.4063,276.7813 Q1172.8594,278.7656 1171.5781,279.7344 Q1170.3125,280.7031 1168.3438,280.7031 Q1165.9219,280.7031 1164.3594,279.0469 Q1162.8125,277.3906 1162.8125,274.5156 Q1162.8125,271.4844 1164.375,269.8125 Q1165.9375,268.125 1168.5,268.125 Q1170.7344,268.125 1172.125,269.4375 Q1172.9531,270.2188 1173.375,271.6875 L1170.9375,272.2656 Q1170.7188,271.3125 1170.0313,270.7656 Q1169.3594,270.2188 1168.375,270.2188 Q1167.0156,270.2188 1166.1719,271.2031 Q1165.3438,272.1719 1165.3438,274.3438 Q1165.3438,276.6406 1166.1719,277.625 Q1167,278.6094 1168.3281,278.6094 Q1169.3125,278.6094 1170.0156,277.9844 Q1170.7188,277.3594 1171.0156,276.0313 Z " fill="#000000"/><text fill="#000000" font-family="Verdana" font-size="14" lengthAdjust="spacing" textLength="95" x="1185.75" y="280.0679">SeekBehavior</text><line style="stroke:#000000;stroke-width:1.0;" x1="1087.5" x2="1351.5" y1="288.5" y2="288.5"/><line style="stroke:#000000;stroke-width:1.0;" x1="1087.5" x2="1351.5" y1="296.5" y2="296.5"/><ellipse cx="1097.5" cy="310.5073" fill="#FFFFFF" rx="3" ry="3" style="stroke:#000000;stroke-width:1.0;"/><text fill="#000000" font-family="Verdana" font-size="14" lengthAdjust="spacing" textLength="242" x="1104.5" y="314.5752">calculateForce(Ennemy): Vector2D</text></g><!--class Vector2D--><g id="elem_Vector2D"><rect codeLine="52" fill="#FFFFFF" height="401.3076" id="Vector2D" rx="2.5" ry="2.5" style="stroke:#000000;stroke-width:1.0;" width="332" x="460.5" y="681"/><ellipse cx="589.75" cy="695" fill="#FFFFFF" rx="9" ry="9" style="stroke:#000000;stroke-width:1.0;"/><path d="M592.5156,696.5313 L594.9063,697.2813 Q594.3594,699.2656 593.0781,700.2344 Q591.8125,701.2031 589.8438,701.2031 Q587.4219,701.2031 585.8594,699.5469 Q584.3125,697.8906 584.3125,695.0156 Q584.3125,691.9844 585.875,690.3125 Q587.4375,688.625 590,688.625 Q592.2344,688.625 593.625,689.9375 Q594.4531,690.7188 594.875,692.1875 L592.4375,692.7656 Q592.2188,691.8125 591.5313,691.2656 Q590.8594,690.7188 589.875,690.7188 Q588.5156,690.7188 587.6719,691.7031 Q586.8438,692.6719 586.8438,694.8438 Q586.8438,697.1406 587.6719,698.125 Q588.5,699.1094 589.8281,699.1094 Q590.8125,699.1094 591.5156,698.4844 Q592.2188,697.8594 592.5156,696.5313 Z " fill="#000000"/><text fill="#000000" font-family="Verdana" font-size="14" lengthAdjust="spacing" textLength="66" x="607.25" y="700.5679">Vector2D</text><line style="stroke:#000000;stroke-width:1.0;" x1="461.5" x2="791.5" y1="709" y2="709"/><rect fill="none" height="6" style="stroke:#000000;stroke-width:1.0;" width="6" x="468.5" y="720.0073"/><text fill="#000000" font-family="Verdana" font-size="14" lengthAdjust="spacing" textLength="66" x="478.5" y="727.0752">y: double</text><rect fill="none" height="6" style="stroke:#000000;stroke-width:1.0;" width="6" x="468.5" y="737.022"/><text fill="#000000" font-family="Verdana" font-size="14" lengthAdjust="spacing" textLength="67" x="478.5" y="744.0898">x: double</text><line style="stroke:#000000;stroke-width:1.0;" x1="461.5" x2="791.5" y1="751.0293" y2="751.0293"/><ellipse cx="471.5" cy="765.0366" fill="#FFFFFF" rx="3" ry="3" style="stroke:#000000;stroke-width:1.0;"/><text fill="#000000" font-family="Verdana" font-size="14" lengthAdjust="spacing" textLength="235" x="478.5" y="769.1045">getPairIndex(char[][], char): int[]</text><ellipse cx="471.5" cy="782.0513" fill="#FFFFFF" rx="3" ry="3" style="stroke:#000000;stroke-width:1.0;"/><text fill="#000000" font-family="Verdana" font-size="14" lengthAdjust="spacing" textLength="130" x="478.5" y="786.1191">setY(double): void</text><ellipse cx="471.5" cy="799.0659" fill="#FFFFFF" rx="3" ry="3" style="stroke:#000000;stroke-width:1.0;"/><text fill="#000000" font-family="Verdana" font-size="14" lengthAdjust="spacing" textLength="156" x="478.5" y="803.1338">normalize(): Vector2D</text><ellipse cx="471.5" cy="816.0806" fill="#FFFFFF" rx="3" ry="3" style="stroke:#000000;stroke-width:1.0;"/><text fill="#000000" font-family="Verdana" font-size="14" lengthAdjust="spacing" textLength="212" x="478.5" y="820.1484">distanceTo(Vector2D): double</text><ellipse cx="471.5" cy="833.0952" fill="#FFFFFF" rx="3" ry="3" style="stroke:#000000;stroke-width:1.0;"/><text fill="#000000" font-family="Verdana" font-size="14" lengthAdjust="spacing" textLength="102" x="478.5" y="837.1631">getY(): double</text><ellipse cx="471.5" cy="850.1099" fill="#FFFFFF" rx="3" ry="3" style="stroke:#000000;stroke-width:1.0;"/><text fill="#000000" font-family="Verdana" font-size="14" lengthAdjust="spacing" textLength="149" x="478.5" y="854.1777">isObstacle(): boolean</text><ellipse cx="471.5" cy="867.1245" fill="#FFFFFF" rx="3" ry="3" style="stroke:#000000;stroke-width:1.0;"/><text fill="#000000" font-family="Verdana" font-size="14" lengthAdjust="spacing" textLength="103" x="478.5" y="871.1924">getX(): double</text><ellipse cx="471.5" cy="884.1392" fill="#FFFFFF" rx="3" ry="3" style="stroke:#000000;stroke-width:1.0;"/><text fill="#000000" font-family="Verdana" font-size="14" lengthAdjust="spacing" textLength="308" x="478.5" y="888.207">getCloserPairIndex(char[][], char): double[]</text><ellipse cx="471.5" cy="901.1538" fill="#FFFFFF" rx="3" ry="3" style="stroke:#000000;stroke-width:1.0;"/><text fill="#000000" font-family="Verdana" font-size="14" lengthAdjust="spacing" textLength="214" x="478.5" y="905.2217">subtract(Vector2D): Vector2D</text><ellipse cx="471.5" cy="918.1685" fill="#FFFFFF" rx="3" ry="3" style="stroke:#000000;stroke-width:1.0;"/><text fill="#000000" font-family="Verdana" font-size="14" lengthAdjust="spacing" textLength="124" x="478.5" y="922.2363">toString(): String</text><ellipse cx="471.5" cy="935.1831" fill="#FFFFFF" rx="3" ry="3" style="stroke:#000000;stroke-width:1.0;"/><text fill="#000000" font-family="Verdana" font-size="14" lengthAdjust="spacing" textLength="176" x="478.5" y="939.251">divide(double): Vector2D</text><ellipse cx="471.5" cy="952.1978" fill="#FFFFFF" rx="3" ry="3" style="stroke:#000000;stroke-width:1.0;"/><text fill="#000000" font-family="Verdana" font-size="14" lengthAdjust="spacing" textLength="181" x="478.5" y="956.2656">add(Vector2D): Vector2D</text><ellipse cx="471.5" cy="969.2124" fill="#FFFFFF" rx="3" ry="3" style="stroke:#000000;stroke-width:1.0;"/><text fill="#000000" font-family="Verdana" font-size="14" lengthAdjust="spacing" textLength="170" x="478.5" y="973.2803">scale(double): Vector2D</text><ellipse cx="471.5" cy="986.2271" fill="#FFFFFF" rx="3" ry="3" style="stroke:#000000;stroke-width:1.0;"/><text fill="#000000" font-family="Verdana" font-size="14" lengthAdjust="spacing" textLength="169" x="478.5" y="990.2949">equals(Object): boolean</text><rect fill="#FFFFFF" height="6" style="stroke:#000000;stroke-width:1.0;" width="6" x="468.5" y="1000.2417"/><text fill="#000000" font-family="Verdana" font-size="14" lengthAdjust="spacing" textLength="298" x="478.5" y="1007.3096">getCloser(Vector2D, Vector2D): Vector2D</text><ellipse cx="471.5" cy="1020.2563" fill="#FFFFFF" rx="3" ry="3" style="stroke:#000000;stroke-width:1.0;"/><text fill="#000000" font-family="Verdana" font-size="14" lengthAdjust="spacing" textLength="258" x="478.5" y="1024.3242">getCaseFromVector(Vector2D): int[]</text><ellipse cx="471.5" cy="1037.271" fill="#FFFFFF" rx="3" ry="3" style="stroke:#000000;stroke-width:1.0;"/><text fill="#000000" font-family="Verdana" font-size="14" lengthAdjust="spacing" textLength="131" x="478.5" y="1041.3389">setX(double): void</text><ellipse cx="471.5" cy="1054.2856" fill="#FFFFFF" rx="3" ry="3" style="stroke:#000000;stroke-width:1.0;"/><text fill="#000000" font-family="Verdana" font-size="14" lengthAdjust="spacing" textLength="245" x="478.5" y="1058.3535">getClosestCaseCenter(): Vector2D</text><ellipse cx="471.5" cy="1071.3003" fill="#FFFFFF" rx="3" ry="3" style="stroke:#000000;stroke-width:1.0;"/><text fill="#000000" font-family="Verdana" font-size="14" lengthAdjust="spacing" textLength="144" x="478.5" y="1075.3682">magnitude(): double</text></g><!--link Astar to Cell--><g id="link_Astar_Cell"><path codeLine="76" d="M346.5,398.19 C346.5,427.48 346.5,452.07 346.5,477.26 " fill="none" id="Astar-to-Cell" style="stroke:#595959;stroke-width:1.0;stroke-dasharray:7.0,7.0;"/><polygon fill="#595959" points="346.5,483.26,350.5,474.26,346.5,478.26,342.5,474.26,346.5,483.26" style="stroke:#595959;stroke-width:1.0;"/><text fill="#000000" font-family="Verdana" font-size="13" lengthAdjust="spacing" textLength="43" x="302.5" y="437.7898">create</text></g><!--link Astar to Details--><g id="link_Astar_Details"><path codeLine="77" d="M514.5,398.19 C514.5,430.9 514.5,459.21 514.5,485.84 " fill="none" id="Astar-to-Details" style="stroke:#595959;stroke-width:1.0;stroke-dasharray:7.0,7.0;"/><polygon fill="#595959" points="514.5,491.84,518.5,482.84,514.5,486.84,510.5,482.84,514.5,491.84" style="stroke:#595959;stroke-width:1.0;"/><text fill="#000000" font-family="Verdana" font-size="13" lengthAdjust="spacing" textLength="43" x="470.5" y="442.0798">create</text></g><!--link Astar to Vector2D--><g id="link_Astar_Vector2D"><path codeLine="78" d="M626.25,398.28 C626.25,477 626.25,580.24 626.25,674.94 " fill="none" id="Astar-to-Vector2D" style="stroke:#595959;stroke-width:1.0;stroke-dasharray:7.0,7.0;"/><polygon fill="#595959" points="626.25,680.94,630.25,671.94,626.25,675.94,622.25,671.94,626.25,680.94" style="stroke:#595959;stroke-width:1.0;"/><text fill="#000000" font-family="Verdana" font-size="13" lengthAdjust="spacing" textLength="43" x="582.25" y="536.6798">create</text></g><!--link AvoidBehavior to Behavior--><g id="link_AvoidBehavior_Behavior"><path codeLine="79" d="M894,338.62 C894,372.3 894,400.31 894,439.8 " fill="none" id="AvoidBehavior-to-Behavior" style="stroke:#000082;stroke-width:1.0;"/><polygon fill="none" points="894,457.8,900,439.8,888,439.8,894,457.8" style="stroke:#000082;stroke-width:1.0;"/></g><!--link Behavior to Vector2D--><g id="link_Behavior_Vector2D"><path codeLine="80" d="M795.34,609 C765,609 753.5,609 753.5,609 C753.5,609 753.5,633.93 753.5,674.95 " fill="none" id="Behavior-Vector2D" style="stroke:#595959;stroke-width:1.0;"/><polygon fill="#595959" points="807.34,609,801.34,605,795.34,609,801.34,613,807.34,609" style="stroke:#595959;stroke-width:1.0;"/><polygon fill="#595959" points="753.5,680.95,757.5,671.95,753.5,675.95,749.5,671.95,753.5,680.95" style="stroke:#595959;stroke-width:1.0;"/><text fill="#000000" font-family="Verdana" font-size="13" lengthAdjust="spacing" textLength="8" x="791.4104" y="610.6743">1</text><text fill="#000000" font-family="Verdana" font-size="13" lengthAdjust="spacing" textLength="41" x="716.6602" y="654.5861">target</text><text fill="#000000" font-family="Verdana" font-size="13" lengthAdjust="spacing" textLength="8" x="733.1602" y="670.3854">1</text></g><!--link Cell to Vector2D--><g id="link_Cell_Vector2D"><path codeLine="81" d="M420.11,593 C458.75,593 498.17,593 498.17,593 C498.17,593 498.17,625.69 498.17,674.73 " fill="none" id="Cell-to-Vector2D" style="stroke:#595959;stroke-width:1.0;stroke-dasharray:7.0,7.0;"/><polygon fill="#595959" points="498.17,680.73,502.17,671.73,498.17,675.73,494.17,671.73,498.17,680.73" style="stroke:#595959;stroke-width:1.0;"/><text fill="#000000" font-family="Verdana" font-size="13" lengthAdjust="spacing" textLength="43" x="454.17" y="611.9098">create</text></g><!--link Cell to Vector2D--><g id="link_Cell_Vector2D"><path codeLine="82" d="M432.24,590 C485.4,590 535.83,590 535.83,590 C535.83,590 535.83,624.14 535.83,674.63 " fill="none" id="Cell-Vector2D" style="stroke:#595959;stroke-width:1.0;"/><polygon fill="#595959" points="420.24,590,426.24,594,432.24,590,426.24,586,420.24,590" style="stroke:#595959;stroke-width:1.0;"/><polygon fill="#595959" points="535.83,680.63,539.83,671.63,535.83,675.63,531.83,671.63,535.83,680.63" style="stroke:#595959;stroke-width:1.0;"/><text fill="#000000" font-family="Verdana" font-size="13" lengthAdjust="spacing" textLength="8" x="427.8925" y="592.3391">1</text><text fill="#000000" font-family="Verdana" font-size="13" lengthAdjust="spacing" textLength="43" x="488.4484" y="654.2536">parent</text><text fill="#000000" font-family="Verdana" font-size="13" lengthAdjust="spacing" textLength="8" x="505.9484" y="670.0529">1</text></g><!--link PathfollowingBehavior to Behavior--><g id="link_PathfollowingBehavior_Behavior"><path codeLine="83" d="M1084.83,87 C1044.85,87 1011.5,87 1011.5,87 C1011.5,87 1011.5,309.48 1011.5,439.82 " fill="none" id="PathfollowingBehavior-to-Behavior" style="stroke:#000082;stroke-width:1.0;"/><polygon fill="none" points="1011.5,457.82,1017.5,439.82,1005.5,439.82,1011.5,457.82" style="stroke:#000082;stroke-width:1.0;"/></g><!--link PathfollowingBehavior to SeekBehavior--><g id="link_PathfollowingBehavior_SeekBehavior"><path codeLine="84" d="M1219.5,124.27 C1219.5,167.5 1219.5,219.53 1219.5,254.5 " fill="none" id="PathfollowingBehavior-to-SeekBehavior" style="stroke:#595959;stroke-width:1.0;stroke-dasharray:7.0,7.0;"/><polygon fill="#595959" points="1219.5,260.5,1223.5,251.5,1219.5,255.5,1215.5,251.5,1219.5,260.5" style="stroke:#595959;stroke-width:1.0;"/><text fill="#000000" font-family="Verdana" font-size="13" lengthAdjust="spacing" textLength="43" x="1175.5" y="189.4498">create</text></g><!--link PathfollowingBehavior to Vector2D--><g id="link_PathfollowingBehavior_Vector2D"><path codeLine="85" d="M1072.88,50 C917.99,50 696.75,50 696.75,50 C696.75,50 696.75,428.68 696.75,674.75 " fill="none" id="PathfollowingBehavior-Vector2D" style="stroke:#595959;stroke-width:1.0;"/><polygon fill="#595959" points="1084.88,50,1078.88,46,1072.88,50,1078.88,54,1084.88,50" style="stroke:#595959;stroke-width:1.0;"/><polygon fill="#595959" points="696.75,680.75,700.75,671.75,696.75,675.75,692.75,671.75,696.75,680.75" style="stroke:#595959;stroke-width:1.0;"/><text fill="#000000" font-family="Verdana" font-size="13" lengthAdjust="spacing" textLength="8" x="1068.866" y="46.617">1</text><text fill="#000000" font-family="Verdana" font-size="13" lengthAdjust="spacing" textLength="79" x="618.9512" y="654.3782">checkpoints</text><text fill="#000000" font-family="Verdana" font-size="13" lengthAdjust="spacing" textLength="9" x="653.9512" y="670.1776">*</text></g><!--link SeekBehavior to Behavior--><g id="link_SeekBehavior_Behavior"><path codeLine="86" d="M1086.25,291 C1061.11,291 1042.5,291 1042.5,291 C1042.5,291 1042.5,367.36 1042.5,439.79 " fill="none" id="SeekBehavior-to-Behavior" style="stroke:#000082;stroke-width:1.0;"/><polygon fill="none" points="1042.5,457.79,1048.5,439.79,1036.5,439.79,1042.5,457.79" style="stroke:#000082;stroke-width:1.0;"/></g><!--SRC=[hLRjJjim5FsVf_3Adq2fj25Dsj245De0bHYWjY0GCEGc5s9mxSvs2jq4BxH7s3-UR7RIf74-cAejbQhKllVSh-FZlbCHJ01DAIRCKNoA54TZhXIVe90821JXp94FX4snm1D42GCrdmBYGaNSSGAAfKIUL5YWdmv2RKHa3wGY31jFzqmZSB7LsqJPs_gsnkSKCDFc7HJmcAaZm68y7_574D8D8Ymkho-lBHV2L69-1oenEm66gPgx8O_752hcwNBcOU0Jhthix3NDHm1Ma5XxCqv2p0BeSgds1GaBxaCb2BlB8vd5n5q97C09Lf7R1KeheJmXyFoGIFKbMzpHRY-wQQTiJ7dm065zZikMjH4UwcuFTKr1L33M7LfyLNkUvRk9TbESDr89C0rYgdjmS8Pf3FKJpFjhKjTsv2zfFsT4CItTXGZF24y9qq5VlVEReU_VU0U-roj0jyteh4rttThECztZ8W3NPmmcy-8yiwXMm3NaTRl-eJ_mHltZevjU_wm_z0SMPNHxTUWICKRUODyVtGoyNlzqM4vpb7WCS4XYMSeottLjghMHp7SA7JCDMgqwGxJ5sOkioFh40bEbe7UMoMt-AqFhWSA4oWJm1SqC1Qnntzl3h_WRxjzoIlcZvbjfqa4iJ4RT28A7AIUitEBAVf-5yBGy_46-8PlukqBVXW0FLe8h-6OBYyBc5dsUolC_mKGafHGEYNbBTIrHZeGD5mivAzA0SJ7Hv-i7LEWJwjgDEesuMtSoayWN9J8IUJpMNW5Du8gYeetFgypjKYwrs3RddybVMa8yDlfdyTbAMV5KXqoWz6rHoOo4i2pUyi5Xs8WdzS2Q_E1xZAbqZyVtUhLqwUILrQkRVM2qBPQm9_WaNNVjQsavllEQyMMHP0BIrUpMGSiX9lYE4HM7K1Z0i-EajshbwLokVVniFfiXbX64rvqTb8f0vTb6hTTVwOts-hkr4c2c0_yDC3yoRm9QzqCHyBr-Fcrj9lzJhZlV4AfQcSUfNsvzQA6DPLeBb1tKIgN-Ykdz-WIT-ix-GutrW8qPfYh-LeRrahjAqveHgZLQijbKOprWOuq5ORzY6us5reTUeT0_]--></g></svg>